<svg width="72" height="25" xmlns="http://www.w3.org/2000/svg"><path d="M8.613 20.652c-2.14 0-4.654-1.49-4.654-4.747 0-3.257 2.54-4.755 4.656-4.755 2.548 0 4.652 1.971 4.652 4.755s-2.086 4.747-4.654 4.747M16.23.406c.48 0 .869.389.869.869v21.682a.87.87 0 0 1-.87.87h-2.025a.87.87 0 0 1-.869-.87V21.45h-.067s-1.309 2.772-5.468 2.772C3.714 24.221 0 21.376 0 15.905s3.904-8.319 7.656-8.319 5.38 2.41 5.38 2.41h.1V1.275c0-.48.389-.87.869-.87h2.224zm12.098 7.176c3.774 0 8.615 2.482 8.615 8.319 0 5.836-4.829 8.316-8.615 8.316-3.786 0-8.614-2.43-8.614-8.316 0-5.886 4.732-8.32 8.614-8.32zm27.414 4.771c-.395 0-.686-.299-.735-.43-.33-.862-1.38-1.186-2.226-1.186-1.337 0-2.385.619-2.385 1.684 0 1.198 1.41 1.409 3.391 1.87 1.903.443 5.443 1.167 5.443 4.829 0 3.561-3.36 5.082-6.723 5.082-5.63 0-6.355-3.794-6.355-4.265 0-.371.305-.852.873-.852h2.186c.43 0 .72.314.805.56.281.776 1.175 1.361 2.68 1.361 1.616 0 2.571-.64 2.571-1.493 0-1.473-1.581-1.77-3.406-2.166-2.487-.54-5.425-1.09-5.425-4.663 0-3.6 3.272-5.117 6.147-5.117 4.24 0 5.795 2.678 5.97 3.671.098.548-.21 1.115-.826 1.115h-1.985zm12.131 11.792c-1.864 0-4.821-.368-4.821-5.098V11.27h-2.099a.87.87 0 0 1-.869-.87V8.78c0-.48.39-.87.87-.87h2.098V3.889a.87.87 0 0 1 .522-.797l2.224-.97a.87.87 0 0 1 1.216.797V7.91h3.489c.48 0 .869.389.869.869V10.4c0 .48-.39.869-.87.869h-3.488v7.274c0 1.499.305 2.106 1.781 2.106.47 0 .665-.151.86-.151.328 0 .608.092.806.463l.752 1.406a.87.87 0 0 1-.393 1.195c-.594.283-1.553.582-2.947.582zM39.556 8.777c0-.48.39-.87.87-.87h2.223c.48 0 .87.39.87.87v14.18a.87.87 0 0 1-.87.87h-2.224c-.48 0-.869-.39-.869-.87V8.777zm2.006-3.801c-1.55 0-2.542-1.18-2.542-2.377 0-1.197.98-2.378 2.542-2.378 1.563 0 2.543 1.181 2.543 2.378 0 1.196-.991 2.377-2.543 2.377zM28.318 20.652c2.601 0 4.655-2.081 4.655-4.751 0-2.67-2.005-4.755-4.655-4.755-2.65 0-4.646 2.084-4.646 4.755 0 2.67 2.044 4.751 4.646 4.751z" fill="#121212" fill-rule="evenodd"/></svg>