<svg id="Layer_2" height="512" viewBox="0 0 128 128" width="512" xmlns="http://www.w3.org/2000/svg" xmlns:xlink="http://www.w3.org/1999/xlink" data-name="Layer 2"><linearGradient id="linear-gradient" gradientUnits="userSpaceOnUse" x1="103.702" x2="24.298" y1="99.03" y2="19.626"><stop offset="0" stop-color="#06daf7"/><stop offset="1" stop-color="#ff6ca8"/></linearGradient><path d="m53.5 44.648a1.75 1.75 0 0 1 -1.75 1.75h-3.333a1.75 1.75 0 0 1 0-3.5h3.333a1.75 1.75 0 0 1 1.75 1.75zm74.5 0v29.36a1.75 1.75 0 0 1 -1.75 1.75h-8.557a21.208 21.208 0 0 1 -20.884 17.742h-16a10.19 10.19 0 0 1 -8.7-4.922l-2.08-3.478h-12.058l-2.084 3.472a10.2 10.2 0 0 1 -8.7 4.922h-16a21.208 21.208 0 0 1 -20.88-17.736h-8.557a1.75 1.75 0 0 1 -1.75-1.75v-29.36a1.75 1.75 0 0 1 1.75-1.748h8.681a11.482 11.482 0 0 1 11.04-8.4h85.058a1.75 1.75 0 0 1 0 3.5h-8.324v4.9h8.324a3.081 3.081 0 0 1 3.077 3.078v26.322a12.814 12.814 0 0 1 -11.4 12.718v4.9a17.7 17.7 0 0 0 16.294-17.618v-26.324a7.941 7.941 0 0 0 -1.257-4.3 1.75 1.75 0 1 1 2.945-1.891 11.407 11.407 0 0 1 1.389 3.111h8.673a1.75 1.75 0 0 1 1.75 1.752zm-21.894 15.7h-15.877a.769.769 0 0 0 -.768.768v5.772a.769.769 0 0 0 .768.768h15.877zm-102.606 11.91h6.5v-25.858h-6.5zm26.295 17.666v-4.9a12.814 12.814 0 0 1 -11.401-12.724v-26.324a3.081 3.081 0 0 1 3.077-3.076h8.324v-4.9h-8.324a7.98 7.98 0 0 0 -7.971 7.976v26.324a17.7 17.7 0 0 0 16.295 17.624zm-7.9-22.27h15.875a.769.769 0 0 0 .768-.768v-5.772a.769.769 0 0 0 -.768-.768h-15.876zm31.993 17.446h-20.593v4.9h13.9a6.677 6.677 0 0 0 5.7-3.224zm42.92-3.5a9.31 9.31 0 0 0 9.3-9.3v-1.146h-15.879a4.272 4.272 0 0 1 -4.268-4.268v-5.772a4.272 4.272 0 0 1 4.268-4.268h15.877v-10.446h-45.606a1.75 1.75 0 0 1 0-3.5h34.205v-4.9h-61.41v4.9h6.372a1.75 1.75 0 0 1 0 3.5h-17.773v10.446h15.876a4.273 4.273 0 0 1 4.268 4.268v5.772a4.273 4.273 0 0 1 -4.268 4.268h-15.876v1.146a9.309 9.309 0 0 0 9.3 9.3zm-15.998 8.4h13.9v-4.9h-20.599l1 1.67a6.676 6.676 0 0 0 5.699 3.23zm43.69-43.6h-6.5v25.858h6.5zm-54.307 11.691a1.749 1.749 0 0 0 -2.475 0l-9.912 9.909a1.75 1.75 0 1 0 2.475 2.475l9.913-9.913a1.749 1.749 0 0 0 -.001-2.471zm7.95 4.438a1.75 1.75 0 0 0 -2.475-2.475l-5.986 5.986a1.75 1.75 0 1 0 2.475 2.475z" fill="url(#linear-gradient)"/></svg>