<?xml version="1.0" encoding="utf-8"?>
<!-- Generator: Adobe Illustrator 23.0.3, SVG Export Plug-In . SVG Version: 6.00 Build 0)  -->
<svg version="1.1" id="Layer_1" xmlns="http://www.w3.org/2000/svg" xmlns:xlink="http://www.w3.org/1999/xlink" x="0px" y="0px"
	 viewBox="0 0 1187 2360" style="enable-background:new 0 0 1187 2360;" xml:space="preserve">
<style type="text/css">
	.st0{opacity:0.2;fill-rule:evenodd;clip-rule:evenodd;fill:#2EC5B6;enable-background:new    ;}
	.st1{fill:none;stroke:#2EC5B6;stroke-width:2;stroke-linecap:round;stroke-linejoin:round;}
	.st2{opacity:0.2;fill-rule:evenodd;clip-rule:evenodd;fill:#2E6BD1;enable-background:new    ;}
	.st3{fill:none;stroke:#2E6BD1;stroke-width:2;stroke-linecap:round;stroke-linejoin:round;}
	.st4{opacity:0.2;fill-rule:evenodd;clip-rule:evenodd;fill:#FF9F1C;enable-background:new    ;}
	.st5{fill:none;stroke:#FF9F1C;stroke-width:2;stroke-linecap:round;stroke-linejoin:round;}
	.st6{fill-rule:evenodd;clip-rule:evenodd;fill:#FF9F1C;fill-opacity:0.2;}
	.st7{fill:none;stroke:#2EC5B6;stroke-width:2;stroke-linecap:round;}
	.st8{opacity:0.2;}
	.st9{fill:none;stroke:#2E6BD1;stroke-width:2;stroke-linecap:round;}
	.st10{opacity:0.2;fill:none;stroke:#2E6BD1;stroke-width:2;stroke-linecap:round;enable-background:new    ;}
	
		.st11{opacity:0.2;fill:none;stroke:#2E6BD1;stroke-width:2;stroke-linecap:round;stroke-linejoin:round;enable-background:new    ;}
	.st12{fill:none;stroke:#FF9F1C;stroke-width:2;stroke-linejoin:round;}
	.st13{opacity:0.2;fill:none;stroke:#FF9F1C;stroke-width:2;stroke-linejoin:round;enable-background:new    ;}
	
		.st14{opacity:0.2;fill:none;stroke:#2EC5B6;stroke-width:2;stroke-linecap:round;stroke-linejoin:round;enable-background:new    ;}
	.st15{fill-rule:evenodd;clip-rule:evenodd;fill:#FF9F1C;}
</style>
<g>
	<path class="st0" d="M897.4,409.5l-16.1,1.8c-0.2,0-0.4,0.3-0.4,0.5c0,0.1,0,0.2,0.1,0.2l9.6,13.1c0.2,0.3,0.6,0.2,0.8-0.1
		l6.5-14.9c0.1-0.2,0-0.5-0.2-0.6C897.6,409.5,897.5,409.5,897.4,409.5"/>
	<path class="st1" d="M895.7,406.1l-17.7,2l10.6,14.3L895.7,406.1z"/>
	<path class="st2" d="M291.3,351.3l16.1,2.1c0.2,0,0.5-0.1,0.5-0.4c0-0.1,0-0.2,0-0.2l-6.2-15c-0.1-0.2-0.4-0.3-0.6-0.2
		c-0.1,0-0.1,0.1-0.2,0.1l-9.9,12.9c-0.2,0.2-0.1,0.5,0.1,0.6C291.1,351.3,291.2,351.3,291.3,351.3"/>
	<path class="st3" d="M292.1,355.1l17.7,2.4L303,341L292.1,355.1z"/>
	<path class="st0" d="M237.2,86.3L224,76.8c-0.2-0.1-0.5-0.1-0.6,0.1c0,0.1-0.1,0.1-0.1,0.2l-1.6,16.2c0,0.3,0.3,0.6,0.6,0.5
		l14.8-6.7c0.2-0.1,0.3-0.4,0.2-0.6C237.3,86.4,237.3,86.3,237.2,86.3"/>
	<path class="st1" d="M238.2,82.6l-14.5-10.4L222,90L238.2,82.6z"/>
	<path class="st4" d="M1110.6,138.7c0,4.3-3.5,7.8-7.8,7.8s-7.8-3.5-7.8-7.8s3.5-7.8,7.8-7.8S1110.6,134.4,1110.6,138.7
		L1110.6,138.7"/>
	<path class="st5" d="M1113.6,141.7c0,4.3-3.5,7.8-7.8,7.8s-7.8-3.5-7.8-7.8s3.5-7.8,7.8-7.8S1113.6,137.4,1113.6,141.7z"/>
	<path class="st4" d="M785.6,602.7c0,4.3-3.5,7.8-7.8,7.8c-4.3,0-7.8-3.5-7.8-7.8s3.5-7.8,7.8-7.8
		C782.1,594.9,785.6,598.4,785.6,602.7"/>
	<path class="st5" d="M788.6,605.7c0,4.3-3.5,7.8-7.8,7.8c-4.3,0-7.8-3.5-7.8-7.8s3.5-7.8,7.8-7.8
		C785.1,597.9,788.6,601.4,788.6,605.7L788.6,605.7z"/>
	<path class="st0" d="M1152.6,479.7c0,4.3-3.5,7.8-7.8,7.8s-7.8-3.5-7.8-7.8s3.5-7.8,7.8-7.8S1152.6,475.4,1152.6,479.7"/>
	<path class="st1" d="M1155.6,482.7c0,4.3-3.5,7.8-7.8,7.8s-7.8-3.5-7.8-7.8s3.5-7.8,7.8-7.8S1155.6,478.4,1155.6,482.7
		L1155.6,482.7z"/>
	<path class="st6" d="M518,488.1l-12.8,6c-0.3,0.1-0.6,0-0.8-0.3c0,0,0,0,0,0l-6-12.8c-0.1-0.3,0-0.6,0.3-0.8c0,0,0,0,0,0l12.8-6
		c0.3-0.1,0.7,0,0.8,0.3c0,0,0,0,0,0l6,12.8C518.4,487.6,518.3,487.9,518,488.1"/>
	<path class="st5" d="M520.3,482.5l-13.9,6.5l-6.5-13.9l13.8-6.5L520.3,482.5z"/>
	<path class="st2" d="M534.9,110.1l-10.3-9.6c-0.2-0.2-0.3-0.6,0-0.8c0,0,0,0,0,0l9.6-10.3c0.2-0.2,0.6-0.3,0.8,0c0,0,0,0,0,0
		l10.3,9.6c0.2,0.2,0.3,0.6,0,0.8l-9.6,10.3C535.5,110.3,535.2,110.3,534.9,110.1"/>
	<path class="st3" d="M541,110.1l-11.2-10.4l10.4-11.2l11.2,10.4L541,110.1z"/>
	<g>
		<path class="st7" d="M860.5,1.6l5.9,17 M872,7.2l-17,5.9"/>
		<g class="st8">
			<path class="st7" d="M863.1,2.8l5.9,17 M874.5,8.4l-17,5.9"/>
		</g>
	</g>
	<g>
		<path class="st7" d="M174.9,471.3l-4.7,17.4 M181.2,482.4l-17.4-4.7"/>
		<g class="st8">
			<path class="st7" d="M176.3,473.8l-4.7,17.4 M182.6,484.8l-17.4-4.7"/>
		</g>
	</g>
	<g>
		<path class="st9" d="M705.9,384.2l8.5,15.9 M718.1,387.9l-15.9,8.5"/>
		<path class="st10" d="M708.7,385l8.5,15.9 M720.8,388.7l-15.9,8.5"/>
	</g>
	<g>
		<path class="st3" d="M1038,371.8l9.2-9l9,9l8.3-8.3l9,9l8.5-8.5l8.5,8.5"/>
		<path class="st11" d="M1041,371.8l9.2-9l9,9l8.3-8.3l9,9l8.5-8.5l8.5,8.5"/>
	</g>
	<g>
		<path class="st12" d="M11,306.8l9.2-9l9,9l8.3-8.3l9,9L55,299l8.5,8.5"/>
		<path class="st13" d="M14,306.8l9.2-9l9,9l8.3-8.3l9,9L58,299l8.5,8.5"/>
	</g>
	<g>
		<path class="st3" d="M1118,826.8l9.2-9l9,9l8.3-8.3l9,9l8.5-8.5l8.5,8.5"/>
		<path class="st11" d="M1121,826.8l9.2-9l9,9l8.3-8.3l9,9l8.5-8.5l8.5,8.5"/>
	</g>
	<g>
		<path class="st9" d="M618.9,1218.3l-4.7,17.4 M625.2,1229.4l-17.4-4.7"/>
		<path class="st10" d="M620.3,1220.8l-4.7,17.4 M626.6,1231.8l-17.4-4.7"/>
	</g>
	<path class="st2" d="M845.4,702.7c0,4.3-3.7,7.8-8.2,7.8s-8.2-3.5-8.2-7.8c0-4.3,3.7-7.8,8.2-7.8S845.4,698.4,845.4,702.7"/>
	<path class="st3" d="M848.6,705.7c0,4.3-3.7,7.8-8.2,7.8s-8.2-3.5-8.2-7.8s3.7-7.8,8.2-7.8S848.6,701.4,848.6,705.7z"/>
	<path class="st0" d="M963.6,1138.7c0,4.3-3.5,7.8-7.8,7.8c-4.3,0-7.8-3.5-7.8-7.8s3.5-7.8,7.8-7.8
		C960.1,1130.9,963.6,1134.4,963.6,1138.7"/>
	<path class="st1" d="M966.6,1141.7c0,4.3-3.5,7.8-7.8,7.8c-4.3,0-7.8-3.5-7.8-7.8s3.5-7.8,7.8-7.8
		C963.1,1133.9,966.6,1137.4,966.6,1141.7z"/>
	<path class="st0" d="M140.6,743.7c0,4.3-3.5,7.8-7.8,7.8c-4.3,0-7.8-3.5-7.8-7.8l0,0c0-4.3,3.5-7.8,7.8-7.8
		C137.1,735.9,140.6,739.4,140.6,743.7"/>
	<path class="st1" d="M143.6,746.7c0,4.3-3.5,7.8-7.8,7.8c-4.3,0-7.8-3.5-7.8-7.8l0,0c0-4.3,3.5-7.8,7.8-7.8
		C140.1,738.9,143.6,742.4,143.6,746.7z"/>
	<path class="st6" d="M544,949.1l-12.8,6c-0.3,0.1-0.6,0-0.8-0.3c0,0,0,0,0,0l-6-12.8c-0.1-0.3,0-0.6,0.3-0.8c0,0,0,0,0,0l12.8-6
		c0.3-0.1,0.7,0,0.8,0.3c0,0,0,0,0,0l6,12.8C544.4,948.6,544.3,948.9,544,949.1C544,949.1,544,949.1,544,949.1"/>
	<path class="st5" d="M546.3,943.5l-13.8,6.5l-6.5-13.8l13.8-6.5L546.3,943.5z"/>
	<g>
		<path class="st9" d="M1000.3,2107.1l6.7,16.7 M1012.1,2112.1l-16.7,6.7"/>
		<path class="st10" d="M1002.9,2108.2l6.7,16.7 M1014.7,2113.2l-16.7,6.7"/>
	</g>
	<path class="st2" d="M87.4,2091.7c0,4.3-3.7,7.8-8.2,7.8s-8.2-3.5-8.2-7.8c0-4.3,3.7-7.8,8.2-7.8S87.4,2087.4,87.4,2091.7"/>
	<path class="st3" d="M90.6,2094.7c0,4.3-3.7,7.8-8.2,7.8s-8.2-3.5-8.2-7.8s3.7-7.8,8.2-7.8S90.6,2090.4,90.6,2094.7z"/>
	<path class="st0" d="M379,2179.1l-12.8,6c-0.3,0.1-0.6,0-0.8-0.3c0,0,0,0,0,0l-6-12.8c-0.1-0.3,0-0.6,0.3-0.8c0,0,0,0,0,0l12.8-6
		c0.3-0.1,0.7,0,0.8,0.3c0,0,0,0,0,0l6,12.8C379.4,2178.6,379.3,2178.9,379,2179.1C379,2179.1,379,2179.1,379,2179.1"/>
	<path class="st1" d="M381.3,2173.5l-13.9,6.5l-6.5-13.8l13.8-6.5L381.3,2173.5z"/>
	<g>
		<path class="st1" d="M1041,1847.8l9.2-9l9,9l8.3-8.3l9,9l8.5-8.5l8.5,8.5"/>
		<path class="st14" d="M1044,1847.8l9.2-9l9,9l8.3-8.3l9,9l8.5-8.5l8.5,8.5"/>
	</g>
	<path class="st4" d="M710.6,2212.7c0,4.3-3.5,7.8-7.8,7.8c-4.3,0-7.8-3.5-7.8-7.8s3.5-7.8,7.8-7.8
		C707.1,2204.9,710.6,2208.4,710.6,2212.7"/>
	<path class="st5" d="M713.6,2215.7c0,4.3-3.5,7.8-7.8,7.8c-4.3,0-7.8-3.5-7.8-7.8s3.5-7.8,7.8-7.8
		C710.1,2207.9,713.6,2211.4,713.6,2215.7z"/>
	<path class="st4" d="M402.4,1667.5l-16.1,1.8c-0.2,0-0.4,0.3-0.4,0.5c0,0.1,0,0.2,0.1,0.2l9.6,13.1c0.2,0.3,0.6,0.2,0.8-0.1
		l6.5-14.9c0.1-0.2,0-0.5-0.2-0.6C402.6,1667.5,402.5,1667.5,402.4,1667.5"/>
	<path class="st5" d="M400.7,1664.1l-17.7,2l10.6,14.3L400.7,1664.1z"/>
	<g>
		<path class="st9" d="M1114.9,2590.3l-4.7,17.4 M1121.2,2601.4l-17.4-4.7"/>
		<path class="st10" d="M1116.3,2592.8l-4.7,17.4 M1122.6,2603.8l-17.4-4.7"/>
	</g>
	<path class="st2" d="M717.4,2721.7c0,4.3-3.7,7.8-8.2,7.8s-8.2-3.5-8.2-7.8c0-4.3,3.7-7.8,8.2-7.8S717.4,2717.4,717.4,2721.7"/>
	<path class="st3" d="M720.6,2724.7c0,4.3-3.7,7.8-8.2,7.8s-8.2-3.5-8.2-7.8s3.7-7.8,8.2-7.8S720.6,2720.4,720.6,2724.7z"/>
	<path class="st4" d="M526.4,2503.5l-16.1,1.8c-0.2,0-0.4,0.2-0.4,0.5c0,0.1,0,0.2,0.1,0.2l9.6,13.1c0.2,0.3,0.6,0.2,0.8-0.1
		l6.5-14.9c0.1-0.2,0-0.5-0.2-0.6C526.6,2503.5,526.5,2503.5,526.4,2503.5"/>
	<path class="st5" d="M524.7,2500.1l-17.7,2l10.6,14.3L524.7,2500.1z"/>
	<path class="st4" d="M1159.6,2876.7c0,4.3-3.5,7.8-7.8,7.8s-7.8-3.5-7.8-7.8s3.5-7.8,7.8-7.8S1159.6,2872.4,1159.6,2876.7"/>
	<path class="st5" d="M1162.6,2879.7c0,4.3-3.5,7.8-7.8,7.8s-7.8-3.5-7.8-7.8s3.5-7.8,7.8-7.8S1162.6,2875.4,1162.6,2879.7z"/>
	<g>
		<g>
			<path class="st9" d="M857.3,3004.1l6.7,16.7 M869.1,3009.1l-16.7,6.7"/>
			<path class="st10" d="M859.9,3005.2l6.7,16.7 M871.7,3010.2l-16.7,6.7"/>
		</g>
	</g>
	<g>
		<path class="st0" d="M433,2993.1l-12.8,6c-0.3,0.1-0.6,0-0.8-0.3c0,0,0,0,0,0l-6-12.8c-0.1-0.3,0-0.6,0.3-0.8c0,0,0,0,0,0l12.8-6
			c0.3-0.1,0.7,0,0.8,0.3c0,0,0,0,0,0l6,12.8C433.4,2992.6,433.3,2992.9,433,2993.1C433,2993.1,433,2993.1,433,2993.1"/>
		<path class="st1" d="M435.3,2987.5l-13.9,6.5l-6.5-13.8l13.8-6.5L435.3,2987.5z"/>
	</g>
	<g>
		<path class="st2" d="M898.4,3311.7c0,4.3-3.7,7.8-8.2,7.8s-8.2-3.5-8.2-7.8c0-4.3,3.7-7.8,8.2-7.8S898.4,3307.4,898.4,3311.7"/>
		<path class="st3" d="M901.6,3314.7c0,4.3-3.7,7.8-8.2,7.8s-8.2-3.5-8.2-7.8s3.7-7.8,8.2-7.8S901.6,3310.4,901.6,3314.7z"/>
	</g>
	<g>
		<path class="st0" d="M193.6,3352.7c0,4.3-3.5,7.8-7.8,7.8c-4.3,0-7.8-3.5-7.8-7.8l0,0c0-4.3,3.5-7.8,7.8-7.8
			C190.1,3344.9,193.6,3348.4,193.6,3352.7"/>
		<path class="st1" d="M196.6,3355.7c0,4.3-3.5,7.8-7.8,7.8c-4.3,0-7.8-3.5-7.8-7.8s3.5-7.8,7.8-7.8
			C193.1,3347.9,196.6,3351.4,196.6,3355.7z"/>
	</g>
	<g>
		<path class="st6" d="M597,3558.1l-12.8,6c-0.3,0.1-0.6,0-0.8-0.3c0,0,0,0,0,0l-6-12.8c-0.1-0.3,0-0.6,0.3-0.8c0,0,0,0,0,0l12.8-6
			c0.3-0.1,0.7,0,0.8,0.3c0,0,0,0,0,0l6,12.8C597.4,3557.6,597.3,3557.9,597,3558.1C597,3558.1,597,3558.1,597,3558.1"/>
		<path class="st5" d="M599.3,3552.5l-13.8,6.5l-6.5-13.8l13.8-6.5L599.3,3552.5z"/>
	</g>
	<g>
		<g>
			<path class="st3" d="M1117,3435.8l9.2-9l9,9l8.3-8.3l9,9l8.5-8.5l8.5,8.5"/>
			<path class="st11" d="M1120,3435.8l9.2-9l9,9l8.3-8.3l9,9l8.5-8.5l8.5,8.5"/>
		</g>
	</g>
	<g>
		<g>
			<path class="st9" d="M671.9,3827.3l-4.7,17.4 M678.2,3838.4l-17.4-4.7"/>
			<path class="st10" d="M673.3,3829.8l-4.7,17.4 M679.6,3840.8l-17.4-4.7"/>
		</g>
	</g>
	<g>
		<path class="st0" d="M1016.6,3747.7c0,4.3-3.5,7.8-7.8,7.8c-4.3,0-7.8-3.5-7.8-7.8l0,0c0-4.3,3.5-7.8,7.8-7.8
			C1013.1,3739.9,1016.6,3743.4,1016.6,3747.7"/>
		<path class="st1" d="M1019.6,3750.7c0,4.3-3.5,7.8-7.8,7.8c-4.3,0-7.8-3.5-7.8-7.8s3.5-7.8,7.8-7.8
			C1016.1,3742.9,1019.6,3746.4,1019.6,3750.7L1019.6,3750.7z"/>
	</g>
	<g>
		<g>
			<path class="st3" d="M523,5061.8l9.2-9l9,9l8.3-8.3l9,9l8.5-8.5l8.5,8.5"/>
			<path class="st11" d="M526,5061.8l9.2-9l9,9l8.3-8.3l9,9l8.5-8.5l8.5,8.5"/>
		</g>
	</g>
	<g>
		<g>
			<path class="st9" d="M644.9,4682.3l-4.7,17.4 M651.2,4693.4l-17.4-4.7"/>
			<path class="st10" d="M646.3,4684.8l-4.7,17.4 M652.6,4695.8l-17.4-4.7"/>
		</g>
	</g>
	<g>
		<path class="st2" d="M871.4,4166.7c0,4.3-3.7,7.8-8.2,7.8s-8.2-3.5-8.2-7.8c0-4.3,3.7-7.8,8.2-7.8S871.4,4162.4,871.4,4166.7"/>
		<path class="st3" d="M874.6,4169.7c0,4.3-3.7,7.8-8.2,7.8s-8.2-3.5-8.2-7.8s3.7-7.8,8.2-7.8S874.6,4165.4,874.6,4169.7z"/>
	</g>
	<g>
		<path class="st0" d="M989.6,4602.7c0,4.3-3.5,7.8-7.8,7.8c-4.3,0-7.8-3.5-7.8-7.8s3.5-7.8,7.8-7.8
			C986.1,4594.9,989.6,4598.4,989.6,4602.7"/>
		<path class="st1" d="M992.6,4605.7c0,4.3-3.5,7.8-7.8,7.8c-4.3,0-7.8-3.5-7.8-7.8s3.5-7.8,7.8-7.8
			C989.1,4597.9,992.6,4601.4,992.6,4605.7z"/>
	</g>
	<g>
		<path class="st0" d="M166.6,4207.7c0,4.3-3.5,7.8-7.8,7.8c-4.3,0-7.8-3.5-7.8-7.8s3.5-7.8,7.8-7.8
			C163.1,4199.9,166.6,4203.4,166.6,4207.7"/>
		<path class="st1" d="M169.6,4210.7c0,4.3-3.5,7.8-7.8,7.8c-4.3,0-7.8-3.5-7.8-7.8s3.5-7.8,7.8-7.8
			C166.1,4202.9,169.6,4206.4,169.6,4210.7z"/>
	</g>
	<g>
		<path class="st6" d="M570,4413.1l-12.8,6c-0.3,0.1-0.6,0-0.8-0.3c0,0,0,0,0,0l-6-12.8c-0.1-0.3,0-0.6,0.3-0.8c0,0,0,0,0,0l12.8-6
			c0.3-0.1,0.7,0,0.8,0.3c0,0,0,0,0,0l6,12.8C570.4,4412.6,570.3,4412.9,570,4413.1C570,4413.1,570,4413.1,570,4413.1"/>
		<path class="st5" d="M572.3,4407.5l-13.8,6.5l-6.5-13.8l13.8-6.5L572.3,4407.5z"/>
	</g>
	<g>
		<path class="st6" d="M105,5290.1l-12.8,6c-0.3,0.1-0.6,0-0.8-0.3c0,0,0,0,0,0l-6-12.8c-0.1-0.3,0-0.6,0.3-0.8c0,0,0,0,0,0l12.8-6
			c0.3-0.1,0.7,0,0.8,0.3c0,0,0,0,0,0l6,12.8C105.4,5289.6,105.3,5289.9,105,5290.1C105,5290.1,105,5290.1,105,5290.1"/>
		<path class="st5" d="M107.3,5284.5l-13.8,6.5l-6.5-13.8l13.8-6.5L107.3,5284.5z"/>
	</g>
	<g>
		<g>
			<path class="st3" d="M1144,4290.8l9.2-9l9,9l8.3-8.3l9,9l8.5-8.5l8.5,8.5"/>
			<path class="st11" d="M1147,4290.8l9.2-9l9,9l8.3-8.3l9,9l8.5-8.5l8.5,8.5"/>
		</g>
	</g>
	<g>
		<path class="st0" d="M238.2,4940.3l-13.2-9.5c-0.2-0.1-0.5-0.1-0.6,0.1c0,0.1-0.1,0.1-0.1,0.2l-1.6,16.2c0,0.3,0.3,0.6,0.6,0.5
			l14.8-6.7c0.2-0.1,0.3-0.4,0.2-0.6C238.3,4940.4,238.3,4940.3,238.2,4940.3"/>
		<path class="st1" d="M239.2,4936.6l-14.5-10.4L223,4944L239.2,4936.6z"/>
	</g>
	<g>
		<path class="st2" d="M1047.2,5420.3l-13.2-9.5c-0.2-0.1-0.5-0.1-0.6,0.1c0,0.1-0.1,0.1-0.1,0.2l-1.6,16.2c0,0.3,0.3,0.6,0.6,0.5
			l14.8-6.7c0.2-0.1,0.3-0.4,0.2-0.6C1047.3,5420.4,1047.3,5420.3,1047.2,5420.3"/>
		<path class="st3" d="M1048.2,5416.6l-14.5-10.4l-1.7,17.7L1048.2,5416.6z"/>
	</g>
	<g>
		<path class="st15" d="M1074.4,4922.5l4.9-17.1l0.7-2.2l3.4,1.2l-0.7,2.2l-6.7,16.5L1074.4,4922.5L1074.4,4922.5z M1070.9,4929.7
			l1.4-4l3.5,1.2l-1.4,4L1070.9,4929.7z"/>
		<path class="st4" d="M1075,4923.8l4.9-17.1l0.7-2.2l3.4,1.2l-0.7,2.2l-6.7,16.5L1075,4923.8L1075,4923.8z M1071.5,4930.9l1.4-4
			l3.5,1.2l-1.4,4L1071.5,4930.9L1071.5,4930.9z"/>
	</g>
</g>
</svg>
