<svg id="Layer_2" height="512" viewBox="0 0 128 128" width="512" xmlns="http://www.w3.org/2000/svg" xmlns:xlink="http://www.w3.org/1999/xlink" data-name="Layer 2"><linearGradient id="linear-gradient" gradientUnits="userSpaceOnUse" x1="105.687" x2="22.313" y1="98.551" y2="15.177"><stop offset="0" stop-color="#06daf7"/><stop offset="1" stop-color="#ff6ca8"/></linearGradient><path d="m90.321 36.405a1.75 1.75 0 0 1 2.822-2.068 36.1 36.1 0 0 1 2.42 3.771 1.75 1.75 0 1 1 -3.057 1.7 32.794 32.794 0 0 0 -2.185-3.403zm8.962 11.532a36.317 36.317 0 0 1 .828 7.727 35.9 35.9 0 0 1 -6.417 20.554 41.467 41.467 0 0 0 -7.468 23.73v9.646a1.748 1.748 0 0 1 -.62 1.336l-6.364 5.383v6.565a5.128 5.128 0 0 1 -5.123 5.122h-20.238a5.128 5.128 0 0 1 -5.123-5.123v-6.565l-6.364-5.383a1.748 1.748 0 0 1 -.62-1.336v-9.641a40.14 40.14 0 0 0 -7.238-23.409 35.823 35.823 0 0 1 -6.636-21.838 36.262 36.262 0 0 1 36.568-35.149 35.892 35.892 0 0 1 20.448 6.668 1.75 1.75 0 0 1 -2.029 2.852 32.4 32.4 0 0 0 -18.464-6.02h-.415a32.735 32.735 0 0 0 -32.608 31.744 32.362 32.362 0 0 0 5.989 19.722 43.376 43.376 0 0 1 7.852 23.678h37.52a44.962 44.962 0 0 1 8.058-23.979 32.414 32.414 0 0 0 5.793-18.56 32.827 32.827 0 0 0 -.748-6.98 1.75 1.75 0 0 1 3.42-.746zm-17.377 61.54h-35.812l5.054 4.274h25.7zm-36.633-7.777v4.274h37.454v-4.274zm30.469 15.549h-23.484v5.626a1.625 1.625 0 0 0 1.623 1.623h20.238a1.625 1.625 0 0 0 1.623-1.623zm7.5-61.569h3.258a1.75 1.75 0 0 1 1.75 1.75v5.89a1.75 1.75 0 0 1 -1.75 1.75h-3.283a19.864 19.864 0 0 1 -2.32 5.563l2.333 2.333a1.749 1.749 0 0 1 0 2.475l-4.165 4.165a1.749 1.749 0 0 1 -2.475 0l-2.346-2.346a19.878 19.878 0 0 1 -5.544 2.295v3.321a1.75 1.75 0 0 1 -1.75 1.75h-5.895a1.75 1.75 0 0 1 -1.75-1.75v-3.321a19.878 19.878 0 0 1 -5.549-2.294l-2.346 2.345a1.8 1.8 0 0 1 -2.475 0l-4.165-4.165a1.749 1.749 0 0 1 0-2.475l2.33-2.332a19.864 19.864 0 0 1 -2.32-5.562h-3.28a1.75 1.75 0 0 1 -1.75-1.75v-5.89a1.75 1.75 0 0 1 1.75-1.75h3.256a19.9 19.9 0 0 1 2.309-5.6l-2.294-2.295a1.749 1.749 0 0 1 0-2.475l4.165-4.165a1.749 1.749 0 0 1 2.475 0l2.281 2.281a19.891 19.891 0 0 1 5.608-2.333v-3.219a1.75 1.75 0 0 1 1.75-1.75h5.891a1.75 1.75 0 0 1 1.75 1.75v3.219a19.891 19.891 0 0 1 5.613 2.333l2.281-2.281a1.749 1.749 0 0 1 2.475 0l4.165 4.165a1.749 1.749 0 0 1 0 2.475l-2.294 2.295a19.9 19.9 0 0 1 2.313 5.6zm1.506 3.5h-2.936a1.75 1.75 0 0 1 -1.728-1.471 16.31 16.31 0 0 0 -2.818-6.843 1.75 1.75 0 0 1 .187-2.255l2.064-2.064-1.69-1.69-2.056 2.056a1.748 1.748 0 0 1 -2.261.183 16.276 16.276 0 0 0 -6.849-2.848 1.75 1.75 0 0 1 -1.461-1.726v-2.9h-2.4v2.9a1.75 1.75 0 0 1 -1.467 1.727 16.276 16.276 0 0 0 -6.844 2.851 1.75 1.75 0 0 1 -2.261-.183l-2.056-2.056-1.69 1.69 2.064 2.064a1.75 1.75 0 0 1 .187 2.255 16.31 16.31 0 0 0 -2.818 6.843 1.75 1.75 0 0 1 -1.728 1.471h-2.937v2.39h2.956a1.749 1.749 0 0 1 1.726 1.461 16.309 16.309 0 0 0 2.841 6.8 1.749 1.749 0 0 1 -.183 2.265l-2.108 2.1 1.69 1.69 2.115-2.116a1.75 1.75 0 0 1 2.255-.187 16.315 16.315 0 0 0 6.8 2.81 1.749 1.749 0 0 1 1.458 1.731v3h2.4v-3a1.749 1.749 0 0 1 1.461-1.728 16.315 16.315 0 0 0 6.8-2.81 1.75 1.75 0 0 1 2.255.187l2.115 2.116 1.69-1.69-2.111-2.103a1.749 1.749 0 0 1 -.183-2.261 16.309 16.309 0 0 0 2.841-6.8 1.749 1.749 0 0 1 1.726-1.461h2.956zm-20.748-11.155a12.3 12.3 0 0 0 -9.025 20.663 1.75 1.75 0 1 0 2.566-2.379 8.8 8.8 0 1 1 6.459 2.823 1.75 1.75 0 0 0 0 3.5 12.3 12.3 0 0 0 0-24.606zm0-34.442a1.75 1.75 0 0 0 1.75-1.75v-10.083a1.75 1.75 0 0 0 -3.5 0v10.083a1.75 1.75 0 0 0 1.75 1.75zm42.78 5.162-7.13 7.13a1.75 1.75 0 1 0 2.475 2.475l7.13-7.13a1.75 1.75 0 1 0 -2.475-2.475zm19.47 43.5h-10.083a1.75 1.75 0 1 0 0 3.5h10.083a1.75 1.75 0 0 0 0-3.5zm-114.417 0h-10.083a1.75 1.75 0 0 0 0 3.5h10.083a1.75 1.75 0 0 0 0-3.5zm16.517-36.37-7.13-7.13a1.75 1.75 0 0 0 -2.475 2.475l7.13 7.13a1.75 1.75 0 1 0 2.475-2.475z" fill="url(#linear-gradient)"/></svg>