<svg id="Layer_2" height="512" viewBox="0 0 128 128" width="512" xmlns="http://www.w3.org/2000/svg" xmlns:xlink="http://www.w3.org/1999/xlink" data-name="Layer 2"><linearGradient id="linear-gradient" gradientUnits="userSpaceOnUse" x1="118.992" x2="19.987" y1="129.15" y2="30.146"><stop offset="0" stop-color="#06daf7"/><stop offset="1" stop-color="#ff6ca8"/></linearGradient><path d="m84.575 33.017a1.749 1.749 0 0 1 2.425-.5l.724.478a1.75 1.75 0 1 1 -1.924 2.924l-.724-.478a1.75 1.75 0 0 1 -.501-2.424zm26.639 30.933v52.831h8.25a1.75 1.75 0 0 1 1.75 1.75v7.669a1.75 1.75 0 0 1 -1.75 1.75h-110.928a1.75 1.75 0 0 1 -1.75-1.75v-7.672a1.75 1.75 0 0 1 1.75-1.75h8.25v-52.828h-8.25a1.75 1.75 0 0 1 -1.75-1.75v-18.128a1.751 1.751 0 0 1 .785-1.46l55.464-36.628a1.754 1.754 0 0 1 1.93 0l13.952 9.216v-13.4a1.75 1.75 0 0 1 1.75-1.75h18.479a1.75 1.75 0 0 1 1.754 1.75v27.913l19.532 12.9a1.751 1.751 0 0 1 .785 1.46v18.127a1.75 1.75 0 0 1 -1.75 1.75zm-28.8-60.4v3.663h14.986v-3.666zm0 13.962 14.986 9.888v-16.687h-14.983zm35.3 102.772h-107.428v4.172h107.428zm-10-3.5v-66.39l-15.982-10.554a1.75 1.75 0 0 1 1.93-2.921l16.767 11.073a1.751 1.751 0 0 1 .785 1.46v11h6.5v-15.438l-19.53-12.9-18.484-12.203-15.7-10.369-53.714 35.472v15.436h6.5v-11a1.751 1.751 0 0 1 .785-1.46l45.464-30.022a1.754 1.754 0 0 1 1.93 0l16.098 10.632a1.75 1.75 0 0 1 -1.93 2.921l-15.133-9.996-43.714 28.869v66.388h8.281v-6.656a1.75 1.75 0 1 1 3.5 0v6.656h22.179v-38.988h-22.179v20.995a1.75 1.75 0 1 1 -3.5 0v-22.745a1.75 1.75 0 0 1 1.75-1.75h25.683a1.75 1.75 0 0 1 1.75 1.75v40.737zm-40.756-60.531a1.75 1.75 0 0 0 2.475-2.475 7.682 7.682 0 0 0 -10.864 0 1.75 1.75 0 0 0 2.475 2.475 4.187 4.187 0 0 1 5.914 0zm5.271-5.271a1.75 1.75 0 1 0 2.471-2.474 15.153 15.153 0 0 0 -21.407 0 1.75 1.75 0 1 0 2.475 2.475 11.654 11.654 0 0 1 16.458 0zm5.271-5.271a1.75 1.75 0 0 0 2.475-2.476 22.618 22.618 0 0 0 -31.949 0 1.75 1.75 0 1 0 2.474 2.476 19.115 19.115 0 0 1 27 0zm-28 54.828a1.75 1.75 0 0 0 1.75-1.75v-2.476a1.75 1.75 0 0 0 -3.5 0v2.476a1.75 1.75 0 0 0 1.75 1.75zm53.75-24.495v21.507a1.75 1.75 0 0 1 -1.75 1.75h-35.25a1.75 1.75 0 0 1 -1.75-1.75v-21.507a1.75 1.75 0 0 1 1.75-1.75h35.25a1.75 1.75 0 0 1 1.75 1.75zm-3.5 1.75h-14.125v7.253h14.125zm-31.75 0v7.253h14.125v-7.253zm0 18.006h14.125v-7.252h-14.125zm31.75 0v-7.252h-14.125v7.252zm-35.75-37.85a2.094 2.094 0 1 0 2.094 2.094 2.1 2.1 0 0 0 -2.094-2.094z" fill="url(#linear-gradient)"/></svg>