<svg id="Layer_2" height="512" viewBox="0 0 128 128" width="512" xmlns="http://www.w3.org/2000/svg" xmlns:xlink="http://www.w3.org/1999/xlink" data-name="Layer 2"><linearGradient id="linear-gradient" gradientUnits="userSpaceOnUse" x1="119.171" x2="8.829" y1="119.171" y2="8.829"><stop offset="0" stop-color="#583377"/><stop offset="1" stop-color="#ff4f9b"/></linearGradient><path d="m31.583 31.372a1.75 1.75 0 0 1 1.75-1.75h4.333a1.75 1.75 0 0 1 0 3.5h-4.333a1.75 1.75 0 0 1 -1.75-1.75zm96.417-11.75v88.757a4.755 4.755 0 0 1 -4.75 4.75h-118.5a4.755 4.755 0 0 1 -4.75-4.751v-88.756a4.755 4.755 0 0 1 4.75-4.75h118.5a4.755 4.755 0 0 1 4.75 4.75zm-3.5 88.757v-75.257h-77a1.75 1.75 0 0 1 0-3.5h77v-10a1.251 1.251 0 0 0 -1.25-1.25h-118.5a1.251 1.251 0 0 0 -1.25 1.25v10h20a1.75 1.75 0 0 1 0 3.5h-20v75.257a1.251 1.251 0 0 0 1.25 1.25h118.5a1.251 1.251 0 0 0 1.25-1.251zm-6.5-67.007v15.35a1.75 1.75 0 0 1 -1.75 1.75h-104.5a1.75 1.75 0 0 1 -1.75-1.75v-15.35a1.75 1.75 0 0 1 1.75-1.75h104.5a1.75 1.75 0 0 1 1.75 1.75zm-3.5 1.75h-101v11.85h101zm3.5 20.578v15.35a1.75 1.75 0 0 1 -1.75 1.75h-67.938a1.75 1.75 0 0 1 -1.75-1.75v-15.35a1.75 1.75 0 0 1 1.75-1.75h67.938a1.75 1.75 0 0 1 1.75 1.75zm-3.5 1.75h-64.438v11.85h64.438zm3.5 20.578v15.35a1.75 1.75 0 0 1 -1.75 1.75h-67.938a1.75 1.75 0 0 1 -1.75-1.75v-15.35a1.75 1.75 0 0 1 1.75-1.75h67.938a1.75 1.75 0 0 1 1.75 1.75zm-3.5 1.75h-64.438v11.85h64.438zm-73.167-25.828h-29.583a1.75 1.75 0 0 0 -1.75 1.75v18.05a1.75 1.75 0 0 0 3.5 0v-16.3h26.083v34.178h-26.083v-5a1.75 1.75 0 0 0 -3.5 0v6.753a1.75 1.75 0 0 0 1.75 1.75h29.583a1.75 1.75 0 0 0 1.75-1.75v-37.681a1.75 1.75 0 0 0 -1.75-1.75zm70.542-36.2h4.375a1.75 1.75 0 0 0 0-3.5h-4.375a1.75 1.75 0 0 0 0 3.5zm-13.375 0h4.375a1.75 1.75 0 0 0 0-3.5h-4.375a1.75 1.75 0 0 0 0 3.5zm-13.375 0h4.375a1.75 1.75 0 0 0 0-3.5h-4.375a1.75 1.75 0 0 0 0 3.5z" fill="url(#linear-gradient)"/></svg>